<?xml version="1.0" encoding="utf-8"?><!DOCTYPE svg PUBLIC "-//W3C//DTD SVG 1.1//EN" "http://www.w3.org/Graphics/SVG/1.1/DTD/svg11.dtd"><svg viewBox="0 0 550 550" xmlns="http://www.w3.org/2000/svg" xmlns:xlink="http://www.w3.org/1999/xlink"><style>:root>svg{display:none}:root>svg:target{display:block}</style><svg fill="none" viewBox="0 0 44 45" id="contacts--insta" xmlns="http://www.w3.org/2000/svg"><mask id="aa" maskUnits="userSpaceOnUse" x="0" y="0" width="44" height="45"><path fill-rule="evenodd" clip-rule="evenodd" d="M0 22.486C0 10.4 9.85.6 22 .6s22 9.799 22 21.886c0 12.088-9.85 21.886-22 21.886S0 34.574 0 22.486z" fill="#fff"/></mask><g mask="url(#aa)" fill-rule="evenodd" clip-rule="evenodd"><path d="M0 22.486C0 10.4 9.85.6 22 .6s22 9.799 22 21.886c0 12.088-9.85 21.886-22 21.886S0 34.574 0 22.486z" fill="#0E5A4C"/><path d="M22.001 10.813c-3.187 0-3.587.014-4.838.07-1.25.058-2.102.255-2.848.543a5.748 5.748 0 00-2.078 1.346 5.725 5.725 0 00-1.355 2.068c-.29.742-.489 1.59-.545 2.833-.056 1.245-.07 1.643-.07 4.813s.014 3.567.07 4.812c.058 1.243.256 2.09.546 2.833.3.768.7 1.419 1.353 2.068a5.749 5.749 0 002.078 1.347c.746.289 1.6.486 2.848.542 1.252.057 1.651.07 4.838.07 3.186 0 3.585-.013 4.837-.07 1.249-.056 2.102-.253 2.849-.542a5.745 5.745 0 002.077-1.347 5.727 5.727 0 001.354-2.068c.289-.742.487-1.59.545-2.833.057-1.245.071-1.642.071-4.812 0-3.17-.014-3.568-.07-4.813-.06-1.243-.257-2.09-.546-2.833a5.726 5.726 0 00-1.354-2.068 5.737 5.737 0 00-2.078-1.346c-.748-.289-1.6-.485-2.85-.542-1.252-.057-1.65-.07-4.838-.07h.004zm-1.052 2.104H22c3.133 0 3.504.011 4.741.067 1.145.052 1.765.242 2.179.402a3.63 3.63 0 011.348.873c.411.409.665.798.878 1.343.161.41.352 1.028.405 2.166.056 1.23.068 1.6.068 4.716 0 3.115-.012 3.484-.069 4.715-.052 1.138-.243 1.756-.404 2.167a3.609 3.609 0 01-.878 1.34c-.41.41-.8.662-1.348.874-.413.16-1.034.35-2.178.402-1.237.056-1.609.068-4.742.068s-3.504-.012-4.741-.068c-1.144-.053-1.765-.243-2.179-.402a3.638 3.638 0 01-1.35-.873 3.617 3.617 0 01-.877-1.342c-.16-.411-.352-1.029-.404-2.167-.057-1.23-.068-1.6-.068-4.717 0-3.117.011-3.485.068-4.716.052-1.138.243-1.755.404-2.167.212-.545.467-.934.878-1.342.41-.409.802-.662 1.35-.874.413-.16 1.034-.35 2.178-.402 1.082-.049 1.502-.063 3.689-.066v.003zm7.315 1.938c-.777 0-1.408.627-1.408 1.4 0 .774.631 1.401 1.408 1.401.778 0 1.408-.627 1.408-1.4 0-.774-.63-1.401-1.408-1.401zm-6.263 1.637c-3.328 0-6.026 2.684-6.026 5.994 0 3.31 2.698 5.994 6.026 5.994s6.025-2.683 6.025-5.994c0-3.31-2.698-5.994-6.025-5.994zm0 2.103c2.16 0 3.911 1.742 3.911 3.891 0 2.15-1.75 3.891-3.91 3.891s-3.912-1.742-3.912-3.89c0-2.15 1.751-3.892 3.911-3.892z" fill="#fff"/></g></svg><svg fill="none" viewBox="0 0 44 45" id="contacts--vk" xmlns="http://www.w3.org/2000/svg"><path fill-rule="evenodd" clip-rule="evenodd" d="M0 22.486C0 10.4 9.85.6 22 .6s22 9.799 22 21.886c0 12.088-9.85 21.886-22 21.886S0 34.574 0 22.486z" fill="#0E5A4C"/><path fill-rule="evenodd" clip-rule="evenodd" d="M23.15 29.669s.424-.046.641-.274c.199-.208.192-.601.192-.601s-.027-1.838.847-2.109c.86-.266 1.966 1.777 3.14 2.562.885.595 1.558.465 1.558.465l3.134-.043s1.64-.099.862-1.357c-.064-.104-.453-.932-2.33-2.633-1.966-1.781-1.702-1.493.665-4.574 1.441-1.876 2.018-3.022 1.837-3.512-.17-.468-1.231-.344-1.231-.344l-3.528.021s-.262-.034-.456.079c-.19.11-.312.37-.312.37s-.558 1.451-1.303 2.686c-1.571 2.605-2.199 2.743-2.456 2.582-.598-.378-.449-1.516-.449-2.324 0-2.525.393-3.577-.763-3.85-.384-.09-.666-.15-1.647-.16-1.26-.012-2.324.004-2.928.293-.402.191-.712.62-.522.644.233.03.76.139 1.04.511.362.48.35 1.56.35 1.56s.207 2.971-.486 3.34c-.475.253-1.127-.263-2.528-2.627-.718-1.21-1.26-2.549-1.26-2.549s-.104-.25-.291-.384a1.466 1.466 0 00-.542-.213l-3.352.021s-.504.014-.689.228c-.164.19-.013.583-.013.583s2.625 5.997 5.598 9.02c2.726 2.77 5.82 2.589 5.82 2.589h1.403z" fill="#fff"/></svg><svg fill="none" viewBox="0 0 25 25" id="faq--close" xmlns="http://www.w3.org/2000/svg"><path fill-rule="evenodd" clip-rule="evenodd" d="M24.053 24.864L.37.956 1.318 0 25 23.908l-.947.956z" fill="#000"/><path fill-rule="evenodd" clip-rule="evenodd" d="M24.63 1.092L.946 25 0 24.044 23.682.136l.947.956z" fill="#000"/></svg><svg viewBox="0 0 488.85 488.85" id="icons--eye" xmlns="http://www.w3.org/2000/svg"><path d="M244.425 98.725c-93.4 0-178.1 51.1-240.6 134.1-5.1 6.8-5.1 16.3 0 23.1 62.5 83.1 147.2 134.2 240.6 134.2s178.1-51.1 240.6-134.1c5.1-6.8 5.1-16.3 0-23.1-62.5-83.1-147.2-134.2-240.6-134.2zm6.7 248.3c-62 3.9-113.2-47.2-109.3-109.3 3.2-51.2 44.7-92.7 95.9-95.9 62-3.9 113.2 47.2 109.3 109.3-3.3 51.1-44.8 92.6-95.9 95.9zm-3.1-47.4c-33.4 2.1-61-25.4-58.8-58.8 1.7-27.6 24.1-49.9 51.7-51.7 33.4-2.1 61 25.4 58.8 58.8-1.8 27.7-24.2 50-51.7 51.7z"/></svg><svg viewBox="0 0 24 24" id="icons--insurance" xmlns="http://www.w3.org/2000/svg"><path d="M11 24c-1.103 0-2-.897-2-2s.897-2 2-2 2 .897 2 2-.897 2-2 2zm0-3a1.001 1.001 0 000 2 1.001 1.001 0 000-2zM18 24c-1.103 0-2-.897-2-2s.897-2 2-2 2 .897 2 2-.897 2-2 2zm0-3a1.001 1.001 0 000 2 1.001 1.001 0 000-2zM9.5 9H5.75a.5.5 0 010-1H9.5a.5.5 0 010 1z"/><path d="M19.1 19h-9.09a2.498 2.498 0 01-2.401-1.816L4.43 6.088A1.497 1.497 0 002.99 5H.5a.5.5 0 010-1h2.49c1.115 0 2.103.747 2.401 1.816L8.57 16.912c.18.642.771 1.088 1.44 1.088h9.09c.626 0 1.193-.399 1.411-.992l.909-2.489a.5.5 0 01.94.343l-.909 2.49A2.518 2.518 0 0119.1 19z"/><path d="M18 14a.485.485 0 01-.194-.04C17.568 13.861 12 11.454 12 6.536V2.357c0-.214.137-.405.34-.474l5.5-1.857a.5.5 0 01.32 0l5.5 1.857c.203.069.34.26.34.474v4.179c0 4.918-5.568 7.325-5.806 7.425A.502.502 0 0118 14zM13 2.716v3.82c0 3.785 4.055 5.958 5 6.414.944-.457 5-2.638 5-6.414v-3.82l-5-1.688z"/><path d="M17.5 9l-.027-.001a.5.5 0 01-.363-.187l-2-2.5a.5.5 0 01.781-.625l1.65 2.064 3.105-3.105a.5.5 0 01.707.707l-3.5 3.5A.494.494 0 0117.5 9z"/></svg><svg viewBox="0 0 208.955 208.955" id="icons--shopping-bag" xmlns="http://www.w3.org/2000/svg"><path d="M190.85 200.227L178.135 58.626a7.5 7.5 0 00-7.47-6.829h-26.221V39.971c0-22.04-17.93-39.971-39.969-39.971-22.038 0-39.966 17.931-39.966 39.971v11.826H38.27a7.5 7.5 0 00-7.47 6.829L18.035 200.784a7.5 7.5 0 007.47 8.17h157.946a7.5 7.5 0 007.399-8.727zM79.509 39.971c0-13.769 11.2-24.971 24.967-24.971 13.768 0 24.969 11.202 24.969 24.971v11.826H79.509V39.971zm-45.8 153.984L45.127 66.797h19.382v13.412a7.5 7.5 0 007.5 7.5 7.5 7.5 0 007.5-7.5V66.797h49.936v13.412a7.5 7.5 0 007.5 7.5 7.5 7.5 0 007.5-7.5V66.797h19.364l11.418 127.158H33.709z"/></svg><svg fill="none" viewBox="0 0 16 12" id="modal--check" xmlns="http://www.w3.org/2000/svg"><path d="M6.36 11.304a.75.75 0 01-1.06 0l-4.235-4.22a1.117 1.117 0 010-1.585l.53-.528a1.127 1.127 0 011.591 0L5.83 7.605 12.973.488a1.127 1.127 0 011.591 0l.53.528c.44.438.44 1.148 0 1.585L6.36 11.304z" fill="#B2B5BB"/></svg><svg fill="none" viewBox="0 0 16 15" id="modal--star" xmlns="http://www.w3.org/2000/svg"><path d="M7.049.927c.3-.921 1.603-.921 1.902 0l1.07 3.292a1 1 0 00.95.69h3.462c.969 0 1.371 1.24.588 1.81l-2.8 2.034a1 1 0 00-.364 1.118l1.07 3.292c.3.921-.755 1.688-1.539 1.118l-2.8-2.034a1 1 0 00-1.176 0l-2.8 2.034c-.784.57-1.838-.197-1.539-1.118l1.07-3.292a1 1 0 00-.363-1.118L.98 6.72c-.784-.57-.382-1.81.587-1.81h3.461a1 1 0 00.951-.69L7.05.927z" fill="#F14F4F"/></svg><svg fill="none" viewBox="0 0 541 550" id="team--bg" xmlns="http://www.w3.org/2000/svg"><g clip-path="url(#iclip0)"><circle r="343" transform="matrix(-1 0 0 1 343 192)" fill="#F14F4F"/></g><g clip-path="url(#iclip1)" stroke="#fff" stroke-opacity=".5"><circle cx="439" cy="-14" r="321.5" transform="rotate(90 439 -14)"/><circle cx="574.5" cy="401.5" r="148" transform="rotate(90 574.5 401.5)"/></g><defs><clipPath id="iclip0"><path fill="#fff" d="M0 0h541v535H0z"/></clipPath><clipPath id="iclip1"><path fill="#fff" transform="rotate(90 270.5 270.5)" d="M0 0h550v424H0z"/></clipPath></defs></svg><svg fill="none" viewBox="0 0 550 424" id="team--figure" xmlns="http://www.w3.org/2000/svg"><g clip-path="url(#jclip0)"><circle cx="-14" cy="102" r="321.5" stroke="#fff" stroke-opacity=".5"/><circle cx="401.5" cy="-33.5" r="148" stroke="#fff" stroke-opacity=".5"/><circle cx="511.5" cy="65.5" r="7.5" fill="#F14F4F"/></g><defs><clipPath id="jclip0"><path fill="#fff" d="M0 0h550v424H0z"/></clipPath></defs></svg><svg fill="none" viewBox="0 0 6 11" id="team--tooltip" xmlns="http://www.w3.org/2000/svg"><path d="M3.78 7.852H2.184a4.09 4.09 0 01.14-1.31c.121-.38.28-.691.476-.933.205-.25.41-.478.616-.682.205-.204.401-.427.588-.669.196-.25.327-.51.392-.78.075-.547-.037-.974-.336-1.28-.299-.317-.69-.474-1.176-.474-.364 0-.695.12-.994.362a1.447 1.447 0 00-.532.96H0C.037 2.147.313 1.465.826 1 1.349.535 2.03.303 2.87.303 3.645.284 4.321.475 4.9.874c.588.4.938.924 1.05 1.574.056.353.065.66.028.92-.037.333-.145.649-.322.946-.168.288-.36.543-.574.766-.205.223-.41.46-.616.71a2.934 2.934 0 00-.504.892c-.13.343-.191.733-.182 1.17zm-.154 2.2a.903.903 0 01-.644.237c-.261 0-.485-.079-.672-.237a.782.782 0 01-.266-.613c0-.25.089-.454.266-.612.187-.158.41-.237.672-.237.261 0 .476.079.644.237a.782.782 0 01.266.612c0 .251-.089.455-.266.613z" fill="#444B58"/></svg></svg>